<svg width="389" height="346" viewBox="0 0 389 346" fill="none" xmlns="http://www.w3.org/2000/svg">
<path d="M25.84 5.99999V47.86H74.7V5.99999H89.82V104H74.7V62.42H25.84V104H10.72V5.99999H25.84ZM182.044 30.5V104H167.484V92.66C165.244 95.74 161.931 98.6333 157.544 101.34C153.157 104.047 148.071 105.4 142.284 105.4C136.124 105.4 130.477 103.767 125.344 100.5C120.304 97.2333 116.291 92.7067 113.304 86.92C110.317 81.1333 108.824 74.5067 108.824 67.04C108.824 59.5733 110.364 52.9933 113.444 47.3C116.524 41.5133 120.771 37.0333 126.184 33.86C131.597 30.5933 137.757 28.96 144.664 28.96C149.797 28.96 154.277 30.08 158.104 32.32C162.024 34.56 165.151 37.1733 167.484 40.16V30.5H182.044ZM145.644 92.1C150.124 92.1 154.044 91.0267 157.404 88.88C160.764 86.64 163.377 83.6533 165.244 79.92C167.111 76.0933 168.044 71.8 168.044 67.04C168.044 62.3733 167.111 58.1733 165.244 54.44C163.377 50.7067 160.764 47.7667 157.404 45.62C154.044 43.38 150.124 42.26 145.644 42.26C141.351 42.26 137.524 43.3333 134.164 45.48C130.804 47.6267 128.191 50.5667 126.324 54.3C124.457 58.0333 123.524 62.28 123.524 67.04C123.524 71.8 124.457 76.0933 126.324 79.92C128.191 83.6533 130.804 86.64 134.164 88.88C137.524 91.0267 141.351 92.1 145.644 92.1ZM211.418 67.18C211.418 72.0333 212.491 76.3733 214.638 80.2C216.878 83.9333 219.771 86.92 223.318 89.16C226.958 91.3067 230.831 92.38 234.938 92.38C239.604 92.38 243.664 91.1667 247.118 88.74C250.571 86.3133 253.371 83.7933 255.518 81.18L263.498 90.98C261.724 93.5 259.298 95.88 256.218 98.12C253.138 100.267 249.638 102.04 245.718 103.44C241.798 104.747 237.691 105.4 233.398 105.4C226.678 105.4 220.611 103.72 215.198 100.36C209.784 97 205.491 92.4267 202.318 86.64C199.238 80.8533 197.698 74.3667 197.698 67.18C197.698 59.9 199.238 53.4133 202.318 47.72C205.491 41.9333 209.784 37.36 215.198 34C220.611 30.64 226.678 28.96 233.398 28.96C240.211 28.96 246.278 30.36 251.598 33.16C256.918 35.8667 260.884 39.4133 263.498 43.8L255.518 53.6C253.371 50.4267 250.291 47.72 246.278 45.48C242.358 43.1467 238.531 41.98 234.798 41.98C230.411 41.98 226.444 43.1 222.898 45.34C219.351 47.4867 216.551 50.4733 214.498 54.3C212.444 58.0333 211.418 62.3267 211.418 67.18ZM277.1 104V0.399999H291.52V63.4L324.7 30.5H344.16L309.72 62.84L345.14 104H326.66L299.5 72.36L291.52 79.92V104H277.1ZM29.34 224V140.56H1.9V126H72.74V140.56H44.46V224H29.34ZM126.244 148.96C132.871 148.96 138.004 150.313 141.644 153.02C145.284 155.727 147.804 159.367 149.204 163.94C150.697 168.513 151.444 173.6 151.444 179.2V224H137.024V180.18C137.024 176.633 136.557 173.46 135.624 170.66C134.691 167.86 133.104 165.667 130.864 164.08C128.624 162.493 125.497 161.84 121.484 162.12C117.751 162.12 114.437 162.913 111.544 164.5C108.651 166.087 106.364 168.187 104.684 170.8C103.004 173.413 102.164 176.307 102.164 179.48V224H87.7441V120.4H102.164V162.12C104.404 158.667 107.671 155.633 111.964 153.02C116.257 150.313 121.017 148.96 126.244 148.96ZM234.146 214.34H234.006C231.019 217.233 226.912 219.8 221.686 222.04C216.459 224.28 210.999 225.4 205.306 225.4C197.652 225.4 190.886 223.813 185.006 220.64C179.219 217.373 174.692 212.94 171.426 207.34C168.159 201.647 166.526 195.207 166.526 188.02C166.526 179.807 168.252 172.807 171.706 167.02C175.159 161.14 179.732 156.66 185.426 153.58C191.119 150.407 197.326 148.82 204.046 148.82C210.206 148.82 215.806 150.36 220.846 153.44C225.886 156.427 229.899 160.58 232.886 165.9C235.872 171.22 237.366 177.427 237.366 184.52L237.226 190.68H180.946C181.786 197.307 184.492 202.58 189.066 206.5C193.732 210.327 199.612 212.24 206.706 212.24C211.839 212.24 215.992 211.307 219.166 209.44C222.339 207.48 224.952 205.613 227.006 203.84L234.146 214.34ZM204.046 162.12C198.539 162.12 193.732 163.427 189.626 166.04C185.519 168.56 182.812 172.947 181.506 179.2H222.666V178.22C222.386 175.047 221.312 172.247 219.446 169.82C217.672 167.393 215.432 165.527 212.726 164.22C210.019 162.82 207.126 162.12 204.046 162.12ZM133.08 246L101.86 344H91.36L66.16 284.5L41.8 344H31.58L0.36 246H16.46L35.36 307.32C36.0133 309.56 36.5733 311.707 37.04 313.76C37.6 315.813 38.0667 317.773 38.44 319.64C38.9067 317.773 39.4667 315.813 40.12 313.76C40.7733 311.707 41.5667 309.513 42.5 307.18L60.14 262.94H73.72L90.8 307.18C91.8267 309.7 92.6667 311.987 93.32 314.04C93.9733 316 94.5333 317.82 95 319.5C95.28 317.82 95.6533 315.953 96.12 313.9C96.68 311.847 97.38 309.513 98.22 306.9L116.84 246H133.08ZM213.398 307.18C213.398 314.647 211.718 321.273 208.358 327.06C205.092 332.753 200.612 337.233 194.918 340.5C189.318 343.767 183.018 345.4 176.018 345.4C169.018 345.4 162.672 343.767 156.978 340.5C151.285 337.233 146.758 332.753 143.398 327.06C140.132 321.273 138.498 314.647 138.498 307.18C138.498 299.713 140.132 293.133 143.398 287.44C146.758 281.653 151.285 277.127 156.978 273.86C162.672 270.593 169.018 268.96 176.018 268.96C183.018 268.96 189.318 270.593 194.918 273.86C200.612 277.127 205.092 281.653 208.358 287.44C211.718 293.133 213.398 299.713 213.398 307.18ZM198.698 307.18C198.792 302.233 197.812 297.893 195.758 294.16C193.798 290.333 191.092 287.393 187.638 285.34C184.185 283.193 180.312 282.12 176.018 282.12C171.725 282.12 167.805 283.193 164.258 285.34C160.805 287.393 158.052 290.333 155.998 294.16C154.038 297.893 153.105 302.233 153.198 307.18C153.105 312.033 154.038 316.373 155.998 320.2C158.052 323.933 160.805 326.873 164.258 329.02C167.805 331.167 171.725 332.24 176.018 332.24C180.312 332.24 184.185 331.167 187.638 329.02C191.092 326.873 193.798 323.933 195.758 320.2C197.812 316.373 198.792 312.033 198.698 307.18ZM270.271 286.04C269.338 285.573 268.171 285.2 266.771 284.92C265.465 284.547 264.065 284.36 262.571 284.36C259.585 284.36 256.645 285.153 253.751 286.74C250.858 288.233 248.431 290.427 246.471 293.32C244.605 296.12 243.671 299.48 243.671 303.4V344H229.111V270.5H243.671V284.36C245.725 279.88 248.805 276.193 252.911 273.3C257.111 270.407 261.498 268.96 266.071 268.96C269.525 268.96 272.185 269.427 274.051 270.36L270.271 286.04ZM285.576 344V240.4H299.996V344H285.576ZM388.089 240.4V344H373.669V333.64C371.522 336.533 368.349 339.24 364.149 341.76C359.949 344.187 355.189 345.4 349.869 345.4C343.242 345.4 337.269 343.767 331.949 340.5C326.629 337.233 322.429 332.707 319.349 326.92C316.269 321.133 314.729 314.553 314.729 307.18C314.729 299.713 316.269 293.133 319.349 287.44C322.429 281.653 326.582 277.127 331.809 273.86C337.036 270.593 342.916 268.96 349.449 268.96C354.676 268.96 359.389 270.033 363.589 272.18C367.882 274.327 371.242 276.847 373.669 279.74V240.4H388.089ZM351.829 332.94C356.309 332.94 360.229 331.82 363.589 329.58C366.949 327.34 369.562 324.26 371.429 320.34C373.296 316.42 374.229 312.033 374.229 307.18C374.229 302.233 373.296 297.847 371.429 294.02C369.562 290.1 366.949 287.02 363.589 284.78C360.229 282.54 356.309 281.42 351.829 281.42C347.442 281.42 343.569 282.54 340.209 284.78C336.849 287.02 334.189 290.1 332.229 294.02C330.362 297.847 329.429 302.233 329.429 307.18C329.429 312.033 330.362 316.42 332.229 320.34C334.189 324.26 336.849 327.34 340.209 329.58C343.569 331.82 347.442 332.94 351.829 332.94Z" fill="#808080"/>
</svg>
